<svg width="33" height="20" viewBox="0 0 33 20" fill="none" xmlns="http://www.w3.org/2000/svg">
<path d="M29.7205 13.767V13.437H29.6299L29.5251 13.6635L29.4209 13.437H29.33V13.767H29.3943V13.5184L29.4923 13.7329H29.559L29.657 13.5179V13.767H29.7208H29.7205ZM29.1457 13.767V13.4935H29.2617V13.4378H28.9653V13.4935H29.0813V13.767H29.1451H29.1457Z" fill="#F79410"/>
<path d="M19.4206 15.1827H11.5791V1.81763H19.4207L19.4206 15.1827Z" fill="#FF5F00"/>
<path d="M12.0766 8.4999C12.0766 5.78879 13.4151 3.37373 15.4993 1.81736C13.9217 0.637528 11.9703 -0.00280621 9.96118 9.24483e-06C5.01194 9.24483e-06 1 3.80548 1 8.4999C1 13.1943 5.01194 16.9998 9.96118 16.9998C11.9704 17.0026 13.9218 16.3623 15.4995 15.1824C13.4154 13.6263 12.0766 11.2111 12.0766 8.4999Z" fill="#EB001B"/>
<path d="M30.0002 8.50014C30.0002 13.1946 25.9883 17 21.039 17C19.0296 17.0028 17.078 16.3625 15.5 15.1827C17.5848 13.6263 18.9233 11.2114 18.9233 8.50014C18.9233 5.7889 17.5848 3.37397 15.5 1.8176C17.078 0.637807 19.0295 -0.00251272 21.0389 0.000253063C25.9881 0.000253063 30.0001 3.80573 30.0001 8.50014" fill="#F79E1B"/>
</svg>
